<svg xmlns="http://www.w3.org/2000/svg" version="1.1" xmlns:xlink="http://www.w3.org/1999/xlink" xmlns:svgjs="http://svgjs.com/svgjs" width="512" height="512" x="0" y="0" viewBox="0 0 512 512" style="enable-background:new 0 0 512 512" xml:space="preserve"><g><g xmlns="http://www.w3.org/2000/svg" id="flat"><path d="m376 127.622c50.33 48.128 112 126.84 112 184.378 0 97.2-78.8 152-176 152s-176-54.8-176-152c0-57.388 61.348-135.88 111.6-184z" fill="#39b54a" data-original="#39b54a"></path><path d="m463.907 237.588c-32.34 93.366-121.038 160.412-225.407 160.412a237.9 237.9 0 0 1 -86.031-16c28.037 53.08 88.923 82 159.531 82 97.2 0 176-54.8 176-152 0-22.585-9.5-48.433-24.093-74.412z" fill="#009245" data-original="#009245"></path><path d="m247.605 128 128.4-.38 21.384-64.249c6.27-18.838-14.4-35.2-31.164-24.675a21.008 21.008 0 0 1 -26.078-2.984 39.666 39.666 0 0 0 -56.284 0 21.008 21.008 0 0 1 -26.083 2.988l-.3-.192c-16.735-10.508-37.38 5.77-31.194 24.592z" fill="#39b54a" data-original="#39b54a"></path><rect fill="#8c6239" height="32" rx="16" width="176" x="224" y="88" data-original="#8c6239"></rect><rect fill="#603813" height="32" rx="16" width="176" x="224" y="120" data-original="#603813"></rect><path d="m232 264v-32l80-24 80 24v32z" fill="#666666" data-original="#666666"></path><g fill="#ccc"><path d="m232 272h16v80h-16z" fill="#cccccc" data-original="#cccccc"></path><path d="m280 272h16v80h-16z" fill="#cccccc" data-original="#cccccc"></path><path d="m376 272h16v80h-16z" fill="#cccccc" data-original="#cccccc"></path><path d="m328 272h16v80h-16z" fill="#cccccc" data-original="#cccccc"></path></g><path d="m439.029 416a36.336 36.336 0 0 0 -25.715 10.664l-13.314 13.336-40 8h-48l-88-32 53.223-5.914a21.108 21.108 0 0 0 18.777-20.978 21.107 21.107 0 0 0 -21.107-21.108h-74.893l-80 16h-24v72h24l184 32h64l56-16 27.029-27.03a16.967 16.967 0 0 0 4.971-12 16.971 16.971 0 0 0 -16.971-16.97z" fill="#fccca7" data-original="#fccca7"></path><path d="m216 256h192v32h-192z" fill="#808080" data-original="#808080"></path><path d="m216 336h192v32h-192z" fill="#808080" data-original="#808080"></path><path d="m280 381.108a21.108 21.108 0 0 1 -18.777 20.978l-45.223 5.914 8 8 53.223-5.914a21.1 21.1 0 0 0 -1.784-42.058 21 21 0 0 1 4.561 13.08z" fill="#e5b391" data-original="#e5b391"></path><path d="m439.029 416c-.531 0-1.06.016-1.589.04a16.86 16.86 0 0 1 2.56 8.93 16.967 16.967 0 0 1 -4.971 12l-27.029 27.03-56 16h-64l-184-32h-8v8h24l184 32h64l56-16 27.029-27.03a16.967 16.967 0 0 0 4.971-12 16.971 16.971 0 0 0 -16.971-16.97z" fill="#e5b391" data-original="#e5b391"></path><path d="m24 368h96v120h-96z" fill="#ffc841" data-original="#ffc841"></path><path d="m24 464h96v24h-96z" fill="#f2b630" data-original="#f2b630"></path><path d="m354.367 368h53.633v-32h-9.112a239.2 239.2 0 0 1 -44.521 32z" fill="#666666" data-original="#666666"></path></g></g></svg>